<?xml version="1.0" encoding="UTF-8"?>
<svg version="1.1" xmlns="http://www.w3.org/2000/svg" width="500" height="500">
<path d="M0 0 C165 0 330 0 500 0 C500 165 500 330 500 500 C335 500 170 500 0 500 C0 335 0 170 0 0 Z " fill="#FEFEFE" transform="translate(0,0)"/>
<path d="M0 0 C1.24716797 0.00322266 2.49433594 0.00644531 3.77929688 0.00976562 C5.07287109 0.01814453 6.36644531 0.02652344 7.69921875 0.03515625 C9.66858398 0.04192383 9.66858398 0.04192383 11.67773438 0.04882812 C14.91410885 0.06059676 18.15039053 0.07703865 21.38671875 0.09765625 C22.2075067 3.20870734 22.72706359 5.86438028 22.38671875 9.09765625 C21.39671875 9.75765625 20.40671875 10.41765625 19.38671875 11.09765625 C20.44890625 11.53335938 21.51109375 11.9690625 22.60546875 12.41796875 C35.54583835 17.82764313 47.2908454 24.39977762 54.38671875 37.09765625 C55.87171875 38.08765625 55.87171875 38.08765625 57.38671875 39.09765625 C57.38671875 40.08765625 57.38671875 41.07765625 57.38671875 42.09765625 C55.90171875 42.59265625 55.90171875 42.59265625 54.38671875 43.09765625 C53.72671875 42.76765625 53.06671875 42.43765625 52.38671875 42.09765625 C52.15984375 41.25203125 51.93296875 40.40640625 51.69921875 39.53515625 C48.01281862 29.88029876 38.29457335 22.50822328 29.1640625 18.265625 C17.94628336 13.54816232 8.37933691 12.58060924 -3.61328125 13.09765625 C-2.95328125 14.08765625 -2.29328125 15.07765625 -1.61328125 16.09765625 C-1.61328125 17.08765625 -1.61328125 18.07765625 -1.61328125 19.09765625 C-2.57814453 19.19240234 -2.57814453 19.19240234 -3.5625 19.2890625 C-15.38720293 20.89155434 -26.30436005 26.53270441 -33.61328125 36.09765625 C-39.25259103 44.3304454 -43.0169797 51.96052996 -43.61328125 62.09765625 C-43.70480469 63.28230469 -43.79632813 64.46695313 -43.890625 65.6875 C-44.48709719 79.78461099 -40.07609706 91.62392667 -30.61328125 102.09765625 C-24.64192426 107.80513986 -18.14233565 111.7656492 -10.61328125 115.09765625 C-11.10828125 116.58265625 -11.10828125 116.58265625 -11.61328125 118.09765625 C-26.70391096 109.93769496 -38.77757165 101.0792946 -44.61328125 84.09765625 C-48.6010679 70.40047603 -48.19640273 55.89992856 -41.61328125 43.09765625 C-37.98690072 37.24134414 -33.87723153 31.58749619 -28.61328125 27.09765625 C-27.95328125 27.09765625 -27.29328125 27.09765625 -26.61328125 27.09765625 C-26.61328125 26.43765625 -26.61328125 25.77765625 -26.61328125 25.09765625 C-28.26328125 24.76765625 -29.91328125 24.43765625 -31.61328125 24.09765625 C-31.28328125 22.77765625 -30.95328125 21.45765625 -30.61328125 20.09765625 C-40.99417962 26.29225228 -47.31434554 37.06995161 -51.61328125 48.09765625 C-52.27328125 47.76765625 -52.93328125 47.43765625 -53.61328125 47.09765625 C-49.96001863 32.72815663 -40.08651987 21.58723019 -27.65454102 13.90356445 C-13.45551653 5.53355207 3.09461171 1.99124403 19.38671875 6.09765625 C19.38671875 5.43765625 19.38671875 4.77765625 19.38671875 4.09765625 C2.32838332 -0.02560611 -15.87666181 4.13201922 -30.73095703 12.88378906 C-46.00907558 22.73629301 -53.94833964 37.33347441 -58.42578125 54.59765625 C-60.46083865 64.1175858 -59.91275055 73.51407018 -58.61328125 83.09765625 C-57.12828125 82.10765625 -57.12828125 82.10765625 -55.61328125 81.09765625 C-53.42578125 81.47265625 -53.42578125 81.47265625 -51.61328125 82.09765625 C-51.30390625 83.98484375 -51.30390625 83.98484375 -50.98828125 85.91015625 C-47.83778949 99.77232 -37.9203915 110.45106816 -26.50390625 118.34375 C-13.2691739 126.37401328 2.58931943 129.73622422 17.8125 126.15234375 C30.82752306 122.69571763 44.63124794 116.71907604 52.38671875 105.09765625 C53.09834318 103.44968389 53.77703828 101.78600217 54.38671875 100.09765625 C56.82421875 100.47265625 56.82421875 100.47265625 59.38671875 101.09765625 C59.71671875 101.75765625 60.04671875 102.41765625 60.38671875 103.09765625 C62.69671875 98.80765625 65.00671875 94.51765625 67.38671875 90.09765625 C68.37671875 90.42765625 69.36671875 90.75765625 70.38671875 91.09765625 C65.76640587 99.90137298 61.31646184 107.92236405 54.33203125 115.08203125 C52.46184255 117.01981714 50.80844316 118.80836199 49.38671875 121.09765625 C49.61539969 124.78580918 49.61539969 124.78580918 50.38671875 128.09765625 C49.47921875 128.30390625 48.57171875 128.51015625 47.63671875 128.72265625 C44.1000365 129.71491179 41.06535256 131.25446483 37.82421875 132.97265625 C20.57012056 141.65289307 1.59967615 142.83332358 -16.9375 137.41796875 C-31.0723139 132.34085175 -42.15489743 124.55107633 -51.88671875 113.1171875 C-54.00837106 110.63552631 -56.26961241 108.36808544 -58.61328125 106.09765625 C-58.28328125 105.10765625 -57.95328125 104.11765625 -57.61328125 103.09765625 C-55.96328125 103.09765625 -54.31328125 103.09765625 -52.61328125 103.09765625 C-53 102.41703125 -53.38671875 101.73640625 -53.78515625 101.03515625 C-63.33630277 83.25678451 -64.60351556 65.55756595 -59.61328125 46.09765625 C-58.26680493 42.216056 -56.60833776 38.68549629 -54.61328125 35.09765625 C-54.10925781 34.185 -53.60523438 33.27234375 -53.0859375 32.33203125 C-43.59630599 16.34479323 -29.1664198 6.65456017 -11.61328125 1.09765625 C-7.68582546 0.14318676 -4.03725551 -0.01843496 0 0 Z " fill="#F4F8FA" transform="translate(188.61328125,180.90234375)"/>
<path d="M0 0 C1.24716797 0.00322266 2.49433594 0.00644531 3.77929688 0.00976562 C5.07287109 0.01814453 6.36644531 0.02652344 7.69921875 0.03515625 C9.66858398 0.04192383 9.66858398 0.04192383 11.67773438 0.04882812 C14.91410885 0.06059676 18.15039053 0.07703865 21.38671875 0.09765625 C22.2075067 3.20870734 22.72706359 5.86438028 22.38671875 9.09765625 C21.39671875 9.75765625 20.40671875 10.41765625 19.38671875 11.09765625 C20.44890625 11.53335938 21.51109375 11.9690625 22.60546875 12.41796875 C35.54583835 17.82764313 47.2908454 24.39977762 54.38671875 37.09765625 C55.87171875 38.08765625 55.87171875 38.08765625 57.38671875 39.09765625 C57.38671875 40.08765625 57.38671875 41.07765625 57.38671875 42.09765625 C55.90171875 42.59265625 55.90171875 42.59265625 54.38671875 43.09765625 C53.72671875 42.76765625 53.06671875 42.43765625 52.38671875 42.09765625 C52.15984375 41.25203125 51.93296875 40.40640625 51.69921875 39.53515625 C48.01281862 29.88029876 38.29457335 22.50822328 29.1640625 18.265625 C17.94628336 13.54816232 8.37933691 12.58060924 -3.61328125 13.09765625 C-2.95328125 14.08765625 -2.29328125 15.07765625 -1.61328125 16.09765625 C-1.61328125 17.08765625 -1.61328125 18.07765625 -1.61328125 19.09765625 C-2.57814453 19.19240234 -2.57814453 19.19240234 -3.5625 19.2890625 C-15.38720293 20.89155434 -26.30436005 26.53270441 -33.61328125 36.09765625 C-39.25259103 44.3304454 -43.0169797 51.96052996 -43.61328125 62.09765625 C-43.70480469 63.28230469 -43.79632813 64.46695313 -43.890625 65.6875 C-44.48709719 79.78461099 -40.07609706 91.62392667 -30.61328125 102.09765625 C-24.64192426 107.80513986 -18.14233565 111.7656492 -10.61328125 115.09765625 C-11.10828125 116.58265625 -11.10828125 116.58265625 -11.61328125 118.09765625 C-26.70391096 109.93769496 -38.77757165 101.0792946 -44.61328125 84.09765625 C-48.6010679 70.40047603 -48.19640273 55.89992856 -41.61328125 43.09765625 C-37.98690072 37.24134414 -33.87723153 31.58749619 -28.61328125 27.09765625 C-27.95328125 27.09765625 -27.29328125 27.09765625 -26.61328125 27.09765625 C-26.61328125 26.43765625 -26.61328125 25.77765625 -26.61328125 25.09765625 C-28.26328125 24.76765625 -29.91328125 24.43765625 -31.61328125 24.09765625 C-31.28328125 22.77765625 -30.95328125 21.45765625 -30.61328125 20.09765625 C-40.99417962 26.29225228 -47.31434554 37.06995161 -51.61328125 48.09765625 C-52.27328125 47.76765625 -52.93328125 47.43765625 -53.61328125 47.09765625 C-49.96001863 32.72815663 -40.08651987 21.58723019 -27.65454102 13.90356445 C-13.45551653 5.53355207 3.09461171 1.99124403 19.38671875 6.09765625 C19.38671875 5.43765625 19.38671875 4.77765625 19.38671875 4.09765625 C2.32838332 -0.02560611 -15.87666181 4.13201922 -30.73095703 12.88378906 C-46.00907558 22.73629301 -53.94833964 37.33347441 -58.42578125 54.59765625 C-61.79562343 70.61884877 -58.14718465 84.43411067 -51.61328125 99.09765625 C-51.10861328 100.48017578 -51.10861328 100.48017578 -50.59375 101.890625 C-50.10841797 102.98310547 -50.10841797 102.98310547 -49.61328125 104.09765625 C-47.57222486 104.98458928 -47.57222486 104.98458928 -45.61328125 105.09765625 C-45.94328125 106.41765625 -46.27328125 107.73765625 -46.61328125 109.09765625 C-46.94328125 108.10765625 -47.27328125 107.11765625 -47.61328125 106.09765625 C-48.27328125 105.76765625 -48.93328125 105.43765625 -49.61328125 105.09765625 C-49.94328125 106.41765625 -50.27328125 107.73765625 -50.61328125 109.09765625 C-51.00515625 108.16953125 -51.39703125 107.24140625 -51.80078125 106.28515625 C-52.73696814 104.06833634 -53.71153636 101.900491 -54.78515625 99.74609375 C-63.40149506 82.14110519 -64.44285192 64.93104229 -59.61328125 46.09765625 C-58.26680493 42.216056 -56.60833776 38.68549629 -54.61328125 35.09765625 C-54.10925781 34.185 -53.60523438 33.27234375 -53.0859375 32.33203125 C-43.59630599 16.34479323 -29.1664198 6.65456017 -11.61328125 1.09765625 C-7.68582546 0.14318676 -4.03725551 -0.01843496 0 0 Z " fill="#EBF2F5" transform="translate(188.61328125,180.90234375)"/>
<path d="M0 0 C1.24716797 0.00322266 2.49433594 0.00644531 3.77929688 0.00976562 C5.07287109 0.01814453 6.36644531 0.02652344 7.69921875 0.03515625 C9.66858398 0.04192383 9.66858398 0.04192383 11.67773438 0.04882812 C14.91410885 0.06059676 18.15039053 0.07703865 21.38671875 0.09765625 C22.22734272 3.19538869 22.47607076 5.88098376 22.38671875 9.09765625 C20.63671875 9.72265625 20.63671875 9.72265625 18.38671875 10.09765625 C17.8246875 9.78054687 17.26265625 9.4634375 16.68359375 9.13671875 C8.86811445 5.60114478 -4.63480633 7.71690294 -12.61328125 10.09765625 C-29.78235654 16.84249349 -42.52624133 27.393285 -50.17578125 44.41015625 C-50.65015625 45.62703125 -51.12453125 46.84390625 -51.61328125 48.09765625 C-52.27328125 47.76765625 -52.93328125 47.43765625 -53.61328125 47.09765625 C-49.96001863 32.72815663 -40.08651987 21.58723019 -27.65454102 13.90356445 C-13.45551653 5.53355207 3.09461171 1.99124403 19.38671875 6.09765625 C19.38671875 5.43765625 19.38671875 4.77765625 19.38671875 4.09765625 C2.32838332 -0.02560611 -15.87666181 4.13201922 -30.73095703 12.88378906 C-46.00907558 22.73629301 -53.94833964 37.33347441 -58.42578125 54.59765625 C-61.79562343 70.61884877 -58.14718465 84.43411067 -51.61328125 99.09765625 C-51.10861328 100.48017578 -51.10861328 100.48017578 -50.59375 101.890625 C-50.10841797 102.98310547 -50.10841797 102.98310547 -49.61328125 104.09765625 C-47.57222486 104.98458928 -47.57222486 104.98458928 -45.61328125 105.09765625 C-45.94328125 106.41765625 -46.27328125 107.73765625 -46.61328125 109.09765625 C-46.94328125 108.10765625 -47.27328125 107.11765625 -47.61328125 106.09765625 C-48.27328125 105.76765625 -48.93328125 105.43765625 -49.61328125 105.09765625 C-49.94328125 106.41765625 -50.27328125 107.73765625 -50.61328125 109.09765625 C-51.00515625 108.16953125 -51.39703125 107.24140625 -51.80078125 106.28515625 C-52.73696814 104.06833634 -53.71153636 101.900491 -54.78515625 99.74609375 C-63.40149506 82.14110519 -64.44285192 64.93104229 -59.61328125 46.09765625 C-58.26680493 42.216056 -56.60833776 38.68549629 -54.61328125 35.09765625 C-54.10925781 34.185 -53.60523438 33.27234375 -53.0859375 32.33203125 C-43.59630599 16.34479323 -29.1664198 6.65456017 -11.61328125 1.09765625 C-7.68582546 0.14318676 -4.03725551 -0.01843496 0 0 Z " fill="#1F7698" transform="translate(188.61328125,180.90234375)"/>
<path d="M0 0 C3.58875 -0.0928125 3.58875 -0.0928125 7.25 -0.1875 C8.37003418 -0.22846802 8.37003418 -0.22846802 9.51269531 -0.27026367 C12.60149805 -0.30889448 14.72364101 -0.14870746 17.4609375 1.32421875 C19 3 19 3 19.375 6 C19 9 19 9 17 12 C17.7425 12.5259375 17.7425 12.5259375 18.5 13.0625 C20.81346701 16.05072823 20.4568702 18.34503841 20 22 C17.47248944 24.85406231 15.95639964 25.00328316 12.109375 25.29296875 C10.65592448 25.27594471 9.20270153 25.23716376 7.75 25.1875 C5.1925 25.125625 2.635 25.06375 0 25 C0 16.75 0 8.5 0 0 Z " fill="#0B698F" transform="translate(178,233)"/>
<path d="M0 0 C2.475 0.495 2.475 0.495 5 1 C5.33 1.99 5.66 2.98 6 4 C5.5153125 4.43828125 5.030625 4.8765625 4.53125 5.328125 C-8.23810546 17.40989978 -15.67666961 32.43579659 -17 50 C-17.0488532 53.96687966 -16.94626058 57.91944684 -16.77734375 61.8828125 C-17 65 -17 65 -18.25390625 66.9921875 C-20 68 -20 68 -22.10913086 67.56298828 C-22.73311768 67.37720215 -23.35710449 67.19141602 -24 67 C-23.61741676 44.38801115 -20.62354062 22.69802305 -3.8828125 6.015625 C-2.07681592 4.08223447 -1.03427748 2.41694315 0 0 Z " fill="#E8F1F4" transform="translate(144,193)"/>
<path d="M0 0 C-0.33 1.32 -0.66 2.64 -1 4 C-1.99 4 -2.98 4 -4 4 C-4 3.34 -4 2.68 -4 2 C-18.55419267 2.55608905 -28.33935114 4.74922421 -39.6875 14.25 C-47.41292492 23.4369918 -50.52857833 32.31136823 -50.24609375 44.2421875 C-49.30230741 54.81858677 -44.3739618 64.13121401 -36.6875 71.375 C-27.42766371 79.10454294 -17.78710438 80.64566304 -6 80 C-3.63824952 79.581508 -1.357259 79.04475465 0.9609375 78.43359375 C3 78 3 78 6.9375 78.0625 C7.948125 78.041875 8.95875 78.02125 10 78 C10.99 76.515 10.99 76.515 12 75 C11.67 76.65 11.34 78.3 11 80 C9.7625 80.185625 9.7625 80.185625 8.5 80.375 C4.94202113 80.95550899 4.94202113 80.95550899 1.30078125 82.015625 C-9.23335784 84.66671264 -21.3890176 84.25503715 -31 79 C-41.73466728 72.16097811 -48.71688257 63.22817353 -52.609375 51.1015625 C-54.62396649 40.26306029 -53.07600351 29.76245326 -48 20 C-41.39670727 10.72275033 -32.2352526 2.75500447 -21 0 C-5.95660103 -2.04270873 -5.95660103 -2.04270873 0 0 Z " fill="#24799B" transform="translate(205,207)"/>
<path d="M0 0 C1.07145264 -0.00833862 1.07145264 -0.00833862 2.16455078 -0.0168457 C6.18010674 0.03888621 9.32267814 0.54384447 12.9375 2.3125 C12.9375 2.9725 12.9375 3.6325 12.9375 4.3125 C12.24825439 4.29155273 11.55900879 4.27060547 10.84887695 4.24902344 C-7.56182753 3.44900216 -7.56182753 3.44900216 -25.0625 8.3125 C-25.99578125 8.73660156 -26.9290625 9.16070312 -27.890625 9.59765625 C-41.42014235 16.3813109 -53.16856525 26.98622759 -58.125 41.625 C-58.434375 42.841875 -58.74375 44.05875 -59.0625 45.3125 C-58.4025 44.6525 -57.7425 43.9925 -57.0625 43.3125 C-57.0625 45.2925 -57.0625 47.2725 -57.0625 49.3125 C-58.71864657 49.69468767 -60.38707024 50.02645102 -62.0625 50.3125 C-63.0625 49.3125 -63.0625 49.3125 -63.296875 46.1640625 C-62.54368128 33.78657904 -52.81024765 23.29496304 -44.0625 15.3125 C-31.37731689 4.65922496 -16.41724611 0.10789184 0 0 Z " fill="#ECF3F6" transform="translate(195.0625,182.6875)"/>
<path d="M0 0 C1.98 0.495 1.98 0.495 4 1 C4.20625 2.258125 4.4125 3.51625 4.625 4.8125 C7.77549176 18.67466375 17.69288975 29.35341191 29.109375 37.24609375 C42.34410735 45.27635703 58.20260068 48.63856797 73.42578125 45.0546875 C86.50917043 41.5799042 100.13016869 35.60142305 108 24 C108.69580267 22.68163705 109.37224433 21.35208914 110 20 C110.8125 22.125 110.8125 22.125 111 25 C102.44120937 38.28088201 86.3921541 45.06874006 71.60546875 48.56640625 C66.44422328 49.42532416 61.21462971 49.13114638 56 49 C55.22269531 48.98324219 54.44539063 48.96648437 53.64453125 48.94921875 C37.93679668 47.917754 23.96372918 38.93262122 13.32421875 27.84765625 C7.26996035 20.42991781 0 9.73454053 0 0 Z " fill="#177195" transform="translate(133,262)"/>
<path d="M0 0 C0 0.99 0 1.98 0 3 C-0.96486328 3.09474609 -0.96486328 3.09474609 -1.94921875 3.19140625 C-13.77392168 4.79389809 -24.6910788 10.43504816 -32 20 C-37.63930978 28.23278915 -41.40369845 35.86287371 -42 46 C-42.09152344 47.18464844 -42.18304688 48.36929688 -42.27734375 49.58984375 C-42.87381594 63.68695474 -38.46281581 75.52627042 -29 86 C-23.02864301 91.70748361 -16.5290544 95.66799295 -9 99 C-9.495 100.485 -9.495 100.485 -10 102 C-25.09062971 93.84003871 -37.1642904 84.98163835 -43 68 C-46.99453666 54.27963496 -46.55862683 39.8307117 -40 27 C-32.80700672 14.89700697 -23.71175859 7.70081653 -11 2 C-10.28070313 1.64679688 -9.56140625 1.29359375 -8.8203125 0.9296875 C-5.56589234 -0.6207015 -3.41628245 -1.50316428 0 0 Z " fill="#1D7598" transform="translate(187,197)"/>
<path d="M0 0 C2.97 0.495 2.97 0.495 6 1 C5.95359375 2.03898438 5.9071875 3.07796875 5.859375 4.1484375 C5.49470281 15.74000245 7.08802921 24.16507765 14.47265625 33.50390625 C16.5010087 35.49075788 18.17875257 36 21 36 C21 37.65 21 39.3 21 41 C19.68 41.66 18.36 42.32 17 43 C7.80698431 35.74358406 0.93310859 26.79022083 -1 15 C-1.08933954 13.14751826 -1.13015891 11.2921276 -1.125 9.4375 C-1.12757813 8.50808594 -1.13015625 7.57867187 -1.1328125 6.62109375 C-1.01309964 4.25852524 -0.66993233 2.25969237 0 0 Z " fill="#E7F0F4" transform="translate(155,239)"/>
<path d="M0 0 C5.94 0 11.88 0 18 0 C18 1.32 18 2.64 18 4 C13.38 4 8.76 4 4 4 C4 5.98 4 7.96 4 10 C7.96 10 11.92 10 16 10 C16 11.32 16 12.64 16 14 C12.04 14 8.08 14 4 14 C4 16.31 4 18.62 4 21 C8.62 21 13.24 21 18 21 C18 22.32 18 23.64 18 25 C12.06 25 6.12 25 0 25 C0 16.75 0 8.5 0 0 Z " fill="#126E93" transform="translate(257,233)"/>
<path d="M0 0 C2.32673667 0.69420668 4.66124186 1.34732331 7 2 C6.67 3.32 6.34 4.64 6 6 C4.68 5.67 3.36 5.34 2 5 C2 4.34 2 3.68 2 3 C1.319375 2.87625 0.63875 2.7525 -0.0625 2.625 C-3 2 -3 2 -6.1328125 0.98046875 C-15.9072323 -1.49769223 -28.85810444 -1.56297056 -38 3 C-41.49903349 5.13973392 -44.75135377 7.50104136 -48 10 C-48.9075 10.598125 -49.815 11.19625 -50.75 11.8125 C-58.98665861 19.82036253 -62.93537933 31.76953568 -63.125 43.0625 C-63.02472338 46.2212135 -62.76236111 48.95055558 -62 52 C-64.81077532 49.73018739 -65.90464775 48.55037877 -66.53125 44.93359375 C-66.40854877 31.20639345 -62.27902271 19.94198203 -52.8984375 9.70703125 C-37.57894089 -4.71927916 -19.19231438 -6.53037191 0 0 Z " fill="#25799B" transform="translate(213,205)"/>
<path d="M0 0 C1.32 0 2.64 0 4 0 C4.309375 0.94875 4.61875 1.8975 4.9375 2.875 C10.5234086 15.64279109 24.74167439 24.82305158 37.21875 30.00390625 C54.79343741 36.29821143 74.99808353 36.30463053 92.01464844 28.28540039 C93.30290113 27.65410588 94.5829726 27.00572488 95.85253906 26.33764648 C99.756118 24.3294003 102.6192843 23.64607023 107 24 C107.495 22.515 107.495 22.515 108 21 C108 22.32 108 23.64 108 25 C107.0925 25.20625 106.185 25.4125 105.25 25.625 C101.71331775 26.61725554 98.67863381 28.15680858 95.4375 29.875 C78.18340181 38.55523682 59.2129574 39.73566733 40.67578125 34.3203125 C26.54096735 29.2431955 15.45838382 21.45342008 5.7265625 10.01953125 C3.60491019 7.53787006 1.34366884 5.27042919 -1 3 C-0.67 2.01 -0.34 1.02 0 0 Z " fill="#187296" transform="translate(131,284)"/>
<path d="M0 0 C1.32 0 2.64 0 4 0 C4 3.63 4 7.26 4 11 C8.29 11 12.58 11 17 11 C17 7.37 17 3.74 17 0 C18.32 0 19.64 0 21 0 C21 8.25 21 16.5 21 25 C19.68 25 18.36 25 17 25 C17 21.7 17 18.4 17 15 C12.71 15 8.42 15 4 15 C4 18.3 4 21.6 4 25 C2.68 25 1.36 25 0 25 C0 16.75 0 8.5 0 0 Z " fill="#0F6C91" transform="translate(346,233)"/>
<path d="M0 0 C0.639375 0.33 1.27875 0.66 1.9375 1 C1.6075 2.32 1.2775 3.64 0.9375 5 C0.4425 4.835 -0.0525 4.67 -0.5625 4.5 C-5.23963559 3.56457288 -9.40368985 2.96324365 -13.5625 5.5625 C-15.64642818 8.94888329 -15.62052097 11.09385318 -15.0625 15 C-13.83814845 17.64237846 -13.83814845 17.64237846 -11.0625 19 C-7.70189316 19.32131194 -4.42687766 19.23114045 -1.0625 19 C-1.0625 16.36 -1.0625 13.72 -1.0625 11 C0.2575 11 1.5775 11 2.9375 11 C3.2227983 14.37919987 3.34483393 17.62727503 2.9375 21 C0.64344031 23.59993431 -1.03994791 23.86899083 -4.41015625 24.30078125 C-8.84062265 24.53466711 -11.54147083 24.26051459 -15.5625 22.25 C-18.56848178 19.5446164 -19.83684728 17.61367935 -20.3984375 13.59765625 C-20.46380442 9.35534289 -20.4894368 6.73189166 -18.3125 3 C-12.8681851 -1.83939102 -6.81542576 -2.22544515 0 0 Z " fill="#177195" transform="translate(335.0625,234)"/>
<path d="M0 0 C1.32 0 2.64 0 4 0 C4.04898438 1.27617187 4.09796875 2.55234375 4.1484375 3.8671875 C4.22346191 5.53648072 4.29900988 7.20575046 4.375 8.875 C4.4059375 9.71675781 4.436875 10.55851563 4.46875 11.42578125 C4.50742188 12.23144531 4.54609375 13.03710938 4.5859375 13.8671875 C4.6173584 14.61081543 4.6487793 15.35444336 4.68115234 16.12060547 C4.85419551 18.24010974 4.85419551 18.24010974 7 20 C10.5 20.33333333 10.5 20.33333333 14 20 C16.35358251 17.64641749 16.27871904 17.07031606 16.4140625 13.8671875 C16.45273438 13.06152344 16.49140625 12.25585938 16.53125 11.42578125 C16.57765625 10.16314453 16.57765625 10.16314453 16.625 8.875 C16.66367188 8.02550781 16.70234375 7.17601562 16.7421875 6.30078125 C16.83656494 4.20088316 16.91937586 2.10047109 17 0 C18.65 0 20.3 0 22 0 C22.10861833 2.70942393 22.18758577 5.414439 22.25 8.125 C22.30027344 9.26582031 22.30027344 9.26582031 22.3515625 10.4296875 C22.44402486 15.79250438 21.53426992 18.72722592 18 23 C14.99499474 25.36107556 11.73825143 25.41251682 7.96875 25.328125 C4.85683396 24.80947233 3.14932131 23.21445226 1 21 C-0.17426264 18.65147472 -0.11508173 17.26225935 -0.09765625 14.6484375 C-0.09443359 13.79765625 -0.09121094 12.946875 -0.08789062 12.0703125 C-0.07951172 11.18085938 -0.07113281 10.29140625 -0.0625 9.375 C-0.05798828 8.4778125 -0.05347656 7.580625 -0.04882812 6.65625 C-0.03702591 4.43743352 -0.02056155 2.21874982 0 0 Z " fill="#167195" transform="translate(227,233)"/>
<path d="M0 0 C-4.01286987 0.77993082 -7.87833124 1.09544829 -11.96264648 1.1875 C-25.84173943 1.58865703 -35.35201818 5.78344467 -45 16 C-53.69358437 25.37710943 -54.66712074 37.81661912 -55 50 C-57.67665274 46.763941 -58.46904711 44.75420648 -58.28515625 40.46875 C-56.76959766 27.3477496 -52.39844296 16.07971656 -42.01953125 7.55078125 C-31.53074304 0.23034806 -12.47570236 -8.37273073 0 0 Z " fill="#EBF3F6" transform="translate(207,206)"/>
<path d="M0 0 C0.59425781 0.32226562 1.18851563 0.64453125 1.80078125 0.9765625 C1.25550781 1.08613281 0.71023437 1.19570312 0.1484375 1.30859375 C-2.31123526 1.82575571 -4.75500612 2.39069779 -7.19921875 2.9765625 C-8.29556641 3.23373047 -8.29556641 3.23373047 -9.4140625 3.49609375 C-19.9153796 6.43950089 -28.53799127 13.77706784 -34.19921875 22.9765625 C-38.13767829 30.52527661 -40.21163327 36.73952934 -40.76171875 45.2265625 C-40.88740234 47.12148437 -40.88740234 47.12148437 -41.015625 49.0546875 C-41.07621094 50.01890625 -41.13679687 50.983125 -41.19921875 51.9765625 C-40.20921875 52.3065625 -39.21921875 52.6365625 -38.19921875 52.9765625 C-38.19921875 54.2965625 -38.19921875 55.6165625 -38.19921875 56.9765625 C-40.17921875 56.9765625 -42.15921875 56.9765625 -44.19921875 56.9765625 C-44.64997527 38.64579734 -42.67309721 25.06474057 -29.5546875 11.19921875 C-22.52476065 4.56567252 -10.02136157 -4.66358212 0 0 Z " fill="#F0F6F8" transform="translate(188.19921875,201.0234375)"/>
<path d="M0 0 C14.20507107 -0.72738397 29.91891099 3.15307873 40.94677734 12.53857422 C45.09705187 16.31263491 49.19381557 20.15387119 52.08984375 24.9921875 C53.40482625 27.54568555 53.40482625 27.54568555 56.46484375 29.27734375 C56.46484375 30.26734375 56.46484375 31.25734375 56.46484375 32.27734375 C54.97984375 32.77234375 54.97984375 32.77234375 53.46484375 33.27734375 C52.80484375 32.94734375 52.14484375 32.61734375 51.46484375 32.27734375 C51.23796875 31.43171875 51.01109375 30.58609375 50.77734375 29.71484375 C47.09094362 20.05998626 37.37269835 12.68791078 28.2421875 8.4453125 C13.83187514 2.38527959 0.13497691 0.89388031 -14.78125 6.12109375 C-18.24928113 7.57717491 -21.3444561 9.29201921 -24.53515625 11.27734375 C-25.19515625 11.27734375 -25.85515625 11.27734375 -26.53515625 11.27734375 C-26.86515625 12.26734375 -27.19515625 13.25734375 -27.53515625 14.27734375 C-27.86515625 12.95734375 -28.19515625 11.63734375 -28.53515625 10.27734375 C-10.63780201 0.83456789 -10.63780201 0.83456789 0 0 Z " fill="#1E7598" transform="translate(189.53515625,190.72265625)"/>
<path d="M0 0 C0.99 0.33 1.98 0.66 3 1 C-4.47139989 15.53694596 -12.65383873 27.45678036 -27 36 C-27.73089844 36.44730469 -28.46179688 36.89460938 -29.21484375 37.35546875 C-37.76415737 42.10508743 -49.16099298 46 -59 46 C-59 44.68 -59 43.36 -59 42 C-58.11699219 41.90203125 -57.23398438 41.8040625 -56.32421875 41.703125 C-48.38332653 40.71371201 -41.35067736 39.16536346 -34 36 C-33.30519531 35.71382813 -32.61039063 35.42765625 -31.89453125 35.1328125 C-16.63132992 28.24761589 -6.95616469 14.68523656 0 0 Z " fill="#22789A" transform="translate(256,271)"/>
<path d="M0 0 C6.6 0 13.2 0 20 0 C20 0.99 20 1.98 20 3 C17.69 3 15.38 3 13 3 C13 10.26 13 17.52 13 25 C11.35 25 9.7 25 8 25 C8 18.07 8 11.14 8 4 C5.36 4 2.72 4 0 4 C0 2.68 0 1.36 0 0 Z " fill="#1E7698" transform="translate(373,233)"/>
<path d="M0 0 C1.65 0 3.3 0 5 0 C5 6.93 5 13.86 5 21 C8.63 21 12.26 21 16 21 C16 22.32 16 23.64 16 25 C10.72 25 5.44 25 0 25 C0 16.75 0 8.5 0 0 Z " fill="#207799" transform="translate(282,233)"/>
<path d="M0 0 C1.32 0 2.64 0 4 0 C4 1.32 4 2.64 4 4 C2.33779419 5.00739746 0.66979326 6.00522955 -1 7 C-11.89932126 16.49722411 -18.2056252 32.91083491 -20 47 C-20.36503191 52.34147967 -20.25581109 57.65639064 -20 63 C-20.99 63 -21.98 63 -23 63 C-23.89328271 42.95076588 -20.05509098 23.5484252 -6.125 8.25 C-5.38507813 7.51265625 -4.64515625 6.7753125 -3.8828125 6.015625 C-2.07681592 4.08223447 -1.03427748 2.41694315 0 0 Z " fill="#197296" transform="translate(144,193)"/>
<path d="M0 0 C1.32 0 2.64 0 4 0 C4 6.93 4 13.86 4 21 C7.63 21 11.26 21 15 21 C15 22.32 15 23.64 15 25 C10.05 25 5.1 25 0 25 C0 16.75 0 8.5 0 0 Z " fill="#0D6B90" transform="translate(206,233)"/>
<path d="M0 0 C0.66 0.33 1.32 0.66 2 1 C2 2.98 2 4.96 2 7 C0.948125 7.20625 -0.10375 7.4125 -1.1875 7.625 C-5.12001663 8.58566751 -8.49910109 10.1489599 -12.125 11.9375 C-19.1682971 15.30674972 -27.09340858 18 -35 18 C-34.4609375 16.1171875 -34.4609375 16.1171875 -33 14 C-30.49114409 13.1916574 -28.19510058 12.61787166 -25.625 12.125 C-15.92908363 9.99292512 -7.67641521 6.41775975 0 0 Z " fill="#EDF4F7" transform="translate(236,301)"/>
<path d="M0 0 C7.92 0 15.84 0 24 0 C24.82810826 3.31243305 25.09278428 5.65976579 25 9 C23.25 9.625 23.25 9.625 21 10 C20.443125 9.690625 19.88625 9.38125 19.3125 9.0625 C16.12927769 7.5999384 13.23489222 7.56860512 9.75 7.375 C8.48671875 7.30023438 7.2234375 7.22546875 5.921875 7.1484375 C4.95765625 7.09945312 3.9934375 7.05046875 3 7 C3.33 6.34 3.66 5.68 4 5 C6.06242617 4.97282308 8.12495703 4.9535242 10.1875 4.9375 C11.33605469 4.92589844 12.48460937 4.91429687 13.66796875 4.90234375 C16.59300586 4.98807168 19.16316291 5.32150977 22 6 C22 5.34 22 4.68 22 4 C17.26120232 2.85149303 12.53708638 2.67098443 7.6875 2.4375 C6.85154297 2.39431641 6.01558594 2.35113281 5.15429688 2.30664062 C3.10303065 2.20114693 1.0515352 2.10012685 -1 2 C-0.67 1.34 -0.34 0.68 0 0 Z " fill="#0B6A8F" transform="translate(186,181)"/>
<path d="M0 0 C1.32 0 2.64 0 4 0 C3.95359375 1.03898438 3.9071875 2.07796875 3.859375 3.1484375 C3.49470281 14.74000245 5.08802921 23.16507765 12.47265625 32.50390625 C14.5010087 34.49075788 16.17875257 35 19 35 C19 36.65 19 38.3 19 40 C18.34 39.67 17.68 39.34 17 39 C17.33 38.01 17.66 37.02 18 36 C17.01 36 16.02 36 15 36 C15.33 37.32 15.66 38.64 16 40 C15.34 40 14.68 40 14 40 C12.96986723 38.35178756 11.97934924 36.67888441 11 35 C10.04543698 33.83024647 9.08669482 32.66389732 8.125 31.5 C0.86561319 21.80871861 -0.80088757 11.87093347 0 0 Z " fill="#197296" transform="translate(157,240)"/>
<path d="M0 0 C2.475 0.495 2.475 0.495 5 1 C5.51761346 4.6232942 5.11663231 5.83724692 2.9453125 8.8671875 C2.02095706 9.88432957 1.0798266 10.88640649 0.125 11.875 C-0.36734131 12.39803711 -0.85968262 12.92107422 -1.36694336 13.45996094 C-5.73604204 17.97639538 -10.48699924 21.93602306 -16 25 C-16.66 25 -17.32 25 -18 25 C-18 23.68 -18 22.36 -18 21 C-16.20703125 19.4375 -16.20703125 19.4375 -13.8125 18 C-12.99007812 17.48566406 -12.16765625 16.97132813 -11.3203125 16.44140625 C-10.17175781 15.72791016 -10.17175781 15.72791016 -9 15 C-5.39041068 12.35296783 -2.43435918 9.78678094 0 6 C0.33513594 2.79019864 0.33513594 2.79019864 0 0 Z " fill="#E6F0F3" transform="translate(243,281)"/>
<path d="M0 0 C-2.59271874 3.14960551 -5.45928522 4.09311859 -9.25 5.4375 C-13.09370503 6.83831694 -16.57635593 8.1954676 -20 10.4375 C-23 12 -23 12 -25.9375 11.25 C-26.618125 10.8375 -27.29875 10.425 -28 10 C-27.6875 8.0625 -27.6875 8.0625 -27 6 C-26.01 5.67 -25.02 5.34 -24 5 C-23.34 5.66 -22.68 6.32 -22 7 C-21.03578125 6.50628906 -20.0715625 6.01257813 -19.078125 5.50390625 C-17.80219148 4.85655763 -16.52614379 4.20943401 -15.25 3.5625 C-14.29867187 3.07426758 -14.29867187 3.07426758 -13.328125 2.57617188 C-5.02918261 -1.61652298 -5.02918261 -1.61652298 0 0 Z " fill="#E7F0F4" transform="translate(185,195)"/>
<path d="M0 0 C1.32 0 2.64 0 4 0 C4 8.25 4 16.5 4 25 C2.68 25 1.36 25 0 25 C0 16.75 0 8.5 0 0 Z " fill="#0E6B91" transform="translate(304,233)"/>
<path d="M0 0 C0.99 1.32 1.98 2.64 3 4 C-1.14912752 13.46001075 -6.2922369 18.62349325 -15.703125 22.9296875 C-18.16477744 24.0109198 -18.16477744 24.0109198 -20.875 25.875 C-23 27 -23 27 -25.3125 26.6875 C-25.869375 26.460625 -26.42625 26.23375 -27 26 C-26.67 24.68 -26.34 23.36 -26 22 C-24.88625 21.95875 -23.7725 21.9175 -22.625 21.875 C-14.81938304 20.87853826 -7.93501085 15.96242896 -3.1171875 9.87890625 C-1.23246778 6.70915036 -0.63445545 3.61639605 0 0 Z " fill="#23799A" transform="translate(225,259)"/>
<path d="M0 0 C0.66 0.99 1.32 1.98 2 3 C0.42525801 6.8652758 -1.97035977 9.167945 -5 12 C-5.55558594 12.54914063 -6.11117187 13.09828125 -6.68359375 13.6640625 C-13.30139619 19.91038746 -21.43470879 24.00504176 -30 27 C-32.8125 26.625 -32.8125 26.625 -35 26 C-31.96435153 23.97623435 -29.30239189 22.9653872 -25.875 21.75 C-19.94921413 19.50887965 -15.02358522 16.83619235 -10 13 C-9.41347656 12.55398438 -8.82695312 12.10796875 -8.22265625 11.6484375 C-4.03452797 8.31022278 -0.96014926 5.37683585 0 0 Z " fill="#207799" transform="translate(242,282)"/>
<path d="M0 0 C0.33 0.66 0.66 1.32 1 2 C0.05493087 3.92389074 -0.89590046 5.8452137 -1.87890625 7.75 C-6.12279985 16.26736137 -6.64122821 24.61007631 -7 34 C-9.67398015 30.76717214 -10.46160283 28.76056243 -10.29296875 24.48046875 C-9.3589905 16.5727862 -8.13725742 6.54622064 -1.8125 1.125 C-1.214375 0.75375 -0.61625 0.3825 0 0 Z " fill="#F2F7F9" transform="translate(159,222)"/>
<path d="M0 0 C0.73283203 -0.00773438 1.46566406 -0.01546875 2.22070312 -0.0234375 C6.35822881 -0.00851405 9.59363195 0.40156855 13.3125 2.25 C13.3125 2.91 13.3125 3.57 13.3125 4.25 C12.22364502 4.24214478 12.22364502 4.24214478 11.11279297 4.23413086 C7.80437088 4.21326503 4.49596269 4.20030931 1.1875 4.1875 C0.04539063 4.17912109 -1.09671875 4.17074219 -2.2734375 4.16210938 C-3.38203125 4.15888672 -4.490625 4.15566406 -5.6328125 4.15234375 C-6.64875488 4.14710693 -7.66469727 4.14187012 -8.71142578 4.13647461 C-11.77864726 4.25347691 -14.67383134 4.68223583 -17.6875 5.25 C-17.3575 4.26 -17.0275 3.27 -16.6875 2.25 C-11.07411338 0.38094785 -5.88117016 -0.06306885 0 0 Z " fill="#F0F6F8" transform="translate(194.6875,182.75)"/>
<path d="M0 0 C0.33 0 0.66 0 1 0 C1.25477428 3.4361064 1.47439003 6.87357801 1.6875 10.3125 C1.76033203 11.28896484 1.83316406 12.26542969 1.90820312 13.27148438 C1.96298828 14.20927734 2.01777344 15.14707031 2.07421875 16.11328125 C2.13182373 16.97735596 2.18942871 17.84143066 2.2487793 18.73168945 C2 21 2 21 0.63208008 22.82495117 C-1 24 -1 24 -3.1875 23.6875 C-3.785625 23.460625 -4.38375 23.23375 -5 23 C-5 21.68 -5 20.36 -5 19 C-4.01 18.67 -3.02 18.34 -2 18 C-2.02320312 16.95199219 -2.04640625 15.90398437 -2.0703125 14.82421875 C-2.08907303 13.44531963 -2.10727293 12.0664128 -2.125 10.6875 C-2.15013672 9.65206055 -2.15013672 9.65206055 -2.17578125 8.59570312 C-2.21217794 4.82864604 -2.14378864 3.21568296 0 0 Z " fill="#EBF3F6" transform="translate(125,237)"/>
<path d="M0 0 C0.495 1.98 0.495 1.98 1 4 C-0.36125 4.309375 -0.36125 4.309375 -1.75 4.625 C-5.28668225 5.61725554 -8.32136619 7.15680858 -11.5625 8.875 C-27.05567389 16.82672985 -27.05567389 16.82672985 -34.40625 15.59765625 C-34.9321875 15.40042969 -35.458125 15.20320313 -36 15 C-35.67 14.34 -35.34 13.68 -35 13 C-32.97321974 12.53390068 -30.92638796 12.15439799 -28.875 11.8125 C-22.38834687 10.53904662 -16.98762017 8.41693099 -11.15185547 5.3371582 C-7.24496787 3.33325446 -4.38269029 2.64591069 0 3 C0 2.01 0 1.02 0 0 Z " fill="#3684A3" transform="translate(238,305)"/>
<path d="M0 0 C1.62463842 -0.05395478 3.24978541 -0.09277195 4.875 -0.125 C5.77992188 -0.14820313 6.68484375 -0.17140625 7.6171875 -0.1953125 C10 0 10 0 12 2 C11.46428571 5.53571429 11.46428571 5.53571429 10 7 C8.31391034 7.07205511 6.62499341 7.08386068 4.9375 7.0625 C4.01839844 7.05347656 3.09929687 7.04445312 2.15234375 7.03515625 C1.44207031 7.02355469 0.73179687 7.01195312 0 7 C0 4.69 0 2.38 0 0 Z " fill="#F4F8FA" transform="translate(182,247)"/>
<path d="M0 0 C2.32554473 0.68673804 3.69227068 1.53221649 5.03173828 3.56835938 C6.09879173 5.60588626 7.09261874 7.66447498 8.0625 9.75 C8.40087891 10.45382812 8.73925781 11.15765625 9.08789062 11.8828125 C9.75218406 13.26536518 10.41198504 14.65008695 11.06689453 16.03710938 C12.33820825 18.7114585 13.66581743 21.35657286 15 24 C14.34 24.33 13.68 24.66 13 25 C12.67 24.01 12.34 23.02 12 22 C11.01 21.67 10.02 21.34 9 21 C7.67644 18.80094486 6.53845784 16.68109234 5.4375 14.375 C5.13392578 13.77042969 4.83035156 13.16585938 4.51757812 12.54296875 C2.51110258 8.44258953 1.14166366 4.41897677 0 0 Z " fill="#E4EFF3" transform="translate(130,264)"/>
<path d="M0 0 C1.258125 -0.04125 2.51625 -0.0825 3.8125 -0.125 C4.52019531 -0.14820313 5.22789062 -0.17140625 5.95703125 -0.1953125 C8 0 8 0 11 2 C10.67 3.65 10.34 5.3 10 7 C6.7 7 3.4 7 0 7 C0 4.69 0 2.38 0 0 Z " fill="#E2EDF2" transform="translate(182,236)"/>
<path d="M0 0 C3.88701415 1.29567138 4.44755274 2.8637199 6.5625 6.3125 C7.16191406 7.27800781 7.76132813 8.24351562 8.37890625 9.23828125 C10 12 10 12 11.08984375 14.29296875 C11.88695867 16.18466428 11.88695867 16.18466428 14 17 C13.67 18.65 13.34 20.3 13 22 C12.01 21.67 11.02 21.34 10 21 C9 18 9 18 8 15 C6.54836498 12.44021543 5.00938408 9.9523503 3.4375 7.46484375 C2.02055798 5.03525023 0.97640489 2.63347664 0 0 Z " fill="#23789A" transform="translate(244,204)"/>
<path d="M0 0 C0.66 0.33 1.32 0.66 2 1 C-0.08715923 5.17431846 -2.72314865 7.68325658 -6.28125 10.5703125 C-8.02917855 11.96680757 -8.02917855 11.96680757 -9.53125 13.6171875 C-11 15 -11 15 -14 16 C-12.62228051 11.79237019 -10.73072709 9.37668023 -7.5625 6.3125 C-6.38880859 5.16201172 -6.38880859 5.16201172 -5.19140625 3.98828125 C-3 2 -3 2 0 0 Z " fill="#EEF5F7" transform="translate(166,206)"/>
<path d="M0 0 C0.88300781 0.00902344 1.76601562 0.01804688 2.67578125 0.02734375 C3.67158203 0.04474609 3.67158203 0.04474609 4.6875 0.0625 C4.6875 0.3925 4.6875 0.7225 4.6875 1.0625 C3.74390625 1.20945313 2.8003125 1.35640625 1.828125 1.5078125 C-6.23970071 2.91725193 -12.77118641 4.83513173 -20.01953125 8.85546875 C-22.3125 10.0625 -22.3125 10.0625 -24.3125 10.0625 C-24.6425 11.0525 -24.9725 12.0425 -25.3125 13.0625 C-25.6425 11.7425 -25.9725 10.4225 -26.3125 9.0625 C-23.75363496 7.74247444 -21.19082932 6.43136218 -18.625 5.125 C-17.5431543 4.56522461 -17.5431543 4.56522461 -16.43945312 3.99414062 C-10.82588736 1.14890866 -6.34103507 -0.08454713 0 0 Z " fill="#1A7396" transform="translate(187.3125,191.9375)"/>
<path d="M0 0 C0.66 0 1.32 0 2 0 C1.94670532 0.86951294 1.94670532 0.86951294 1.89233398 1.7565918 C1.73408025 4.39987836 1.585703 7.04363165 1.4375 9.6875 C1.38142578 10.59951172 1.32535156 11.51152344 1.26757812 12.45117188 C1.21923828 13.33740234 1.17089844 14.22363281 1.12109375 15.13671875 C1.0739624 15.94842529 1.02683105 16.76013184 0.97827148 17.59643555 C1.00161772 20.1789485 1.4195208 22.48849909 2 25 C-0.91653298 22.67714863 -1.92122795 21.54806654 -2.4609375 17.79296875 C-2.17278243 5.70355389 -2.17278243 5.70355389 0 0 Z " fill="#3080A0" transform="translate(149,232)"/>
<path d="M0 0 C0.66 0.33 1.32 0.66 2 1 C2.625 3.5625 2.625 3.5625 3 6 C0.43106162 7.28446919 -1.76576337 7.32977144 -4.625 7.5625 C-5.62789062 7.64628906 -6.63078125 7.73007812 -7.6640625 7.81640625 C-8.43492187 7.87699219 -9.20578125 7.93757813 -10 8 C-10 7.01 -10 6.02 -10 5 C-8.38007835 4.13624104 -6.75388139 3.28424146 -5.125 2.4375 C-4.22007812 1.96183594 -3.31515625 1.48617188 -2.3828125 0.99609375 C-1.20332031 0.50302734 -1.20332031 0.50302734 0 0 Z " fill="#EBF3F6" transform="translate(213,279)"/>
<path d="M0 0 C-2 3 -2 3 -4.6796875 3.6953125 C-5.73414063 3.83710938 -6.78859375 3.97890625 -7.875 4.125 C-12.11327243 4.6859031 -12.11327243 4.6859031 -16.2578125 5.6796875 C-16.83273438 5.78539062 -17.40765625 5.89109375 -18 6 C-18.66 5.34 -19.32 4.68 -20 4 C-6.3667426 -0.59225513 -6.3667426 -0.59225513 0 0 Z " fill="#2E7FA0" transform="translate(190,186)"/>
<path d="M0 0 C0.66 0.33 1.32 0.66 2 1 C-0.8755168 6.59128267 -5.1900814 10.54195751 -11 13 C-8.52241061 7.42542386 -4.84184017 3.63138013 0 0 Z " fill="#E2EDF2" transform="translate(167,212)"/>
<path d="M0 0 C1.98 0.495 1.98 0.495 4 1 C4.12117187 1.59167969 4.24234375 2.18335938 4.3671875 2.79296875 C5.26744643 7.03803585 6.20456621 11.02439661 8 15 C7.01 15 6.02 15 5 15 C4.15733289 13.25447527 3.32619962 11.5033792 2.5 9.75 C2.0359375 8.77546875 1.571875 7.8009375 1.09375 6.796875 C0 4 0 4 0 0 Z " fill="#297C9D" transform="translate(133,262)"/>
<path d="M0 0 C3.28465896 2.79196011 5.01321958 6.23196817 7 10 C7 10.66 7 11.32 7 12 C8.32 12.33 9.64 12.66 11 13 C10.67 14.32 10.34 15.64 10 17 C9.67 16.01 9.34 15.02 9 14 C8.34 13.67 7.68 13.34 7 13 C6.67 14.32 6.34 15.64 6 17 C5.566875 15.96875 5.13375 14.9375 4.6875 13.875 C3.65386422 11.43857281 2.55523754 9.15989314 1.3125 6.8125 C0 4 0 4 0 0 Z " fill="#3483A2" transform="translate(132,273)"/>
<path d="M0 0 C1.32 0 2.64 0 4 0 C3.855625 0.639375 3.71125 1.27875 3.5625 1.9375 C2.82763202 5.93844788 2.41418889 9.95504896 2 14 C1.34 14 0.68 14 0 14 C0 9.38 0 4.76 0 0 Z " fill="#267A9C" transform="translate(157,240)"/>
<path d="M0 0 C1.67542976 0.28604898 3.34385343 0.61781233 5 1 C5.66 2.98 6.32 4.96 7 7 C4.37886292 7 2.49064888 6.68707555 0 6 C-0.38218767 4.34385343 -0.71395102 2.67542976 -1 1 C-0.67 0.67 -0.34 0.34 0 0 Z " fill="#8FBACC" transform="translate(238,197)"/>
<path d="M0 0 C-2.20541388 2.20541388 -3.94667501 2.9973448 -6.8125 4.1875 C-7.66457031 4.55230469 -8.51664063 4.91710937 -9.39453125 5.29296875 C-12.33524297 6.09097298 -14.0975082 5.81811708 -17 5 C-14.15819378 3.10546252 -11.68435185 1.99807186 -8.5 0.8125 C-7.5409375 0.44769531 -6.581875 0.08289063 -5.59375 -0.29296875 C-3 -1 -3 -1 0 0 Z " fill="#297C9D" transform="translate(224,303)"/>
<path d="M0 0 C1.67542976 0.28604898 3.34385343 0.61781233 5 1 C5 2.32 5 3.64 5 5 C3.35 5.33 1.7 5.66 0 6 C-0.38218767 4.34385343 -0.71395102 2.67542976 -1 1 C-0.67 0.67 -0.34 0.34 0 0 Z " fill="#A0A0A0" transform="translate(354,264)"/>
<path d="M0 0 C0.33 0.66 0.66 1.32 1 2 C1.99 2.33 2.98 2.66 4 3 C4.66 2.34 5.32 1.68 6 1 C6 2.98 6 4.96 6 7 C4.34385343 7.38218767 2.67542976 7.71395102 1 8 C0 7 0 7 -0.0625 3.4375 C-0.041875 2.303125 -0.02125 1.16875 0 0 Z " fill="#BBD5DF" transform="translate(132,225)"/>
<path d="M0 0 C-0.33 1.32 -0.66 2.64 -1 4 C-1.99 4 -2.98 4 -4 4 C-4 3.34 -4 2.68 -4 2 C-8.29 1.67 -12.58 1.34 -17 1 C-17 0.67 -17 0.34 -17 0 C-14.9174133 -0.19561869 -12.83388144 -0.38119313 -10.75 -0.5625 C-9.58984375 -0.66691406 -8.4296875 -0.77132812 -7.234375 -0.87890625 C-4.48128523 -0.98198087 -2.580018 -0.86213473 0 0 Z " fill="#0F6C91" transform="translate(205,207)"/>
<path d="M0 0 C0.99 1.32 1.98 2.64 3 4 C-0.85421412 12.6309795 -0.85421412 12.6309795 -5 15 C-5 12 -5 12 -3.0625 9.1875 C-0.96036944 5.93875277 -0.36214876 3.80256199 0 0 Z " fill="#2A7D9E" transform="translate(225,259)"/>
<path d="M0 0 C1.65 0.33 3.3 0.66 5 1 C4.67 2.65 4.34 4.3 4 6 C2.35 5.67 0.7 5.34 -1 5 C-0.67 3.35 -0.34 1.7 0 0 Z " fill="#9C9C9C" transform="translate(300,264)"/>
<path d="M0 0 C0.33 0 0.66 0 1 0 C0.67 4.29 0.34 8.58 0 13 C-0.99 13 -1.98 13 -3 13 C-2.88490339 11.58249437 -2.75746342 10.16598831 -2.625 8.75 C-2.55539063 7.96109375 -2.48578125 7.1721875 -2.4140625 6.359375 C-1.98492887 3.914123 -1.21399362 2.15163097 0 0 Z " fill="#3785A4" transform="translate(145,230)"/>
<path d="M0 0 C5.23880078 0.55145271 9.97350697 1.42922093 15 3 C15 3.66 15 4.32 15 5 C15.99 5.33 16.98 5.66 18 6 C11.61435743 5.18132788 5.38079365 3.58719576 0 0 Z " fill="#24799B" transform="translate(166,304)"/>
<path d="M0 0 C0.33 1.32 0.66 2.64 1 4 C-3.67209049 5.43023178 -8.13103697 6.40380045 -13 7 C-12.67 6.01 -12.34 5.02 -12 4 C-10.95199219 3.94392578 -10.95199219 3.94392578 -9.8828125 3.88671875 C-8.97273437 3.82097656 -8.06265625 3.75523437 -7.125 3.6875 C-6.22007812 3.62949219 -5.31515625 3.57148438 -4.3828125 3.51171875 C-1.63778399 3.2117961 -1.63778399 3.2117961 0 0 Z " fill="#3D88A6" transform="translate(216,282)"/>
<path d="M0 0 C0 0.66 0 1.32 0 2 C-3.96 2.66 -7.92 3.32 -12 4 C-12 3.01 -12 2.02 -12 1 C-3.96428571 -1.27678571 -3.96428571 -1.27678571 0 0 Z " fill="#3181A1" transform="translate(186,182)"/>
<path d="M0 0 C3.29680965 0.65784963 5.84117922 1.89420573 8.75 3.5625 C9.94882813 4.24505859 9.94882813 4.24505859 11.171875 4.94140625 C11.77515625 5.29074219 12.3784375 5.64007813 13 6 C12.01 6.66 11.02 7.32 10 8 C8.32819726 7.05065487 6.66266064 6.09026687 5 5.125 C4.071875 4.59132813 3.14375 4.05765625 2.1875 3.5078125 C1.465625 3.01023437 0.74375 2.51265625 0 2 C0 1.34 0 0.68 0 0 Z " fill="#277B9C" transform="translate(151,306)"/>
<path d="M0 0 C0.66 0.33 1.32 0.66 2 1 C2 2.98 2 4.96 2 7 C0.35 7 -1.3 7 -3 7 C-3.33 5.68 -3.66 4.36 -4 3 C-2.68 2.01 -1.36 1.02 0 0 Z " fill="#CDE0E8" transform="translate(236,301)"/>
<path d="M0 0 C3.03852705 1.40976705 5.5939595 3.08870228 8.25 5.125 C8.95640625 5.66382813 9.6628125 6.20265625 10.390625 6.7578125 C10.92171875 7.16773438 11.4528125 7.57765625 12 8 C11.34 8.66 10.68 9.32 10 10 C8.7010161 9.09373216 7.41106833 8.17450463 6.125 7.25 C5.40570313 6.73953125 4.68640625 6.2290625 3.9453125 5.703125 C1.91429435 3.92496453 1.02144988 2.47298393 0 0 Z " fill="#106D92" transform="translate(163,275)"/>
<path d="M0 0 C2.31 0 4.62 0 7 0 C8.125 3.75 8.125 3.75 7 6 C6.34 6 5.68 6 5 6 C5 5.34 5 4.68 5 4 C3.35 3.67 1.7 3.34 0 3 C0 2.01 0 1.02 0 0 Z " fill="#3785A4" transform="translate(203,181)"/>
<path d="M0 0 C2.31 0 4.62 0 7 0 C6.25 1.9375 6.25 1.9375 5 4 C2.875 4.75 2.875 4.75 1 5 C0.67 3.35 0.34 1.7 0 0 Z " fill="#B6D2DE" transform="translate(120,256)"/>
<path d="M0 0 C2.125 0.9375 2.125 0.9375 4 2 C3.67 2.99 3.34 3.98 3 5 C1.68 5 0.36 5 -1 5 C-1.33 5.66 -1.66 6.32 -2 7 C-2 5.02 -2 3.04 -2 1 C-1.34 0.67 -0.68 0.34 0 0 Z " fill="#B3D0DC" transform="translate(257,266)"/>
<path d="M0 0 C4.60209225 -0.17700355 6.78370866 -0.10814567 11 2 C7.04 2.66 3.08 3.32 -1 4 C-0.67 2.68 -0.34 1.36 0 0 Z " fill="#D4E5EB" transform="translate(179,200)"/>
<path d="M0 0 C-0.99 1.485 -0.99 1.485 -2 3 C-4.8203125 3.29296875 -4.8203125 3.29296875 -8.125 3.1875 C-9.76855469 3.14689453 -9.76855469 3.14689453 -11.4453125 3.10546875 C-12.28835937 3.07066406 -13.13140625 3.03585937 -14 3 C-14 2.67 -14 2.34 -14 2 C-4.58997722 -0.29612756 -4.58997722 -0.29612756 0 0 Z " fill="#197296" transform="translate(204,287)"/>
<path d="M0 0 C1.98 0.99 1.98 0.99 4 2 C4.66 1.34 5.32 0.68 6 0 C6 1.98 6 3.96 6 6 C5.34 6 4.68 6 4 6 C3.67 5.34 3.34 4.68 3 4 C2.67 4.66 2.34 5.32 2 6 C1.34 6 0.68 6 0 6 C0 4.02 0 2.04 0 0 Z " fill="#6E6E6E" transform="translate(274,264)"/>
<path d="M0 0 C0.33 0 0.66 0 1 0 C1.06058594 0.73605469 1.12117187 1.47210938 1.18359375 2.23046875 C1.26738281 3.20628906 1.35117188 4.18210938 1.4375 5.1875 C1.51871094 6.15042969 1.59992188 7.11335937 1.68359375 8.10546875 C1.97666151 10.78649602 2.42703754 13.3662986 3 16 C2.01 15.67 1.02 15.34 0 15 C-1.2063366 9.77254141 -0.75612577 5.23471686 0 0 Z " fill="#448DAA" transform="translate(159,245)"/>
<path d="M0 0 C-1.4317616 0.69937202 -2.87067032 1.38412718 -4.3125 2.0625 C-5.51326172 2.63677734 -5.51326172 2.63677734 -6.73828125 3.22265625 C-9 4 -9 4 -12 3 C-10.75823305 2.29773859 -9.50614401 1.61370891 -8.25 0.9375 C-7.20585937 0.36322266 -7.20585937 0.36322266 -6.140625 -0.22265625 C-3.63859372 -1.1312406 -2.4667645 -0.88336837 0 0 Z " fill="#1A7396" transform="translate(226,314)"/>
<path d="M0 0 C2 0 2 0 3.6875 1.1875 C5 3 5 3 4.6875 5.6875 C4.460625 6.450625 4.23375 7.21375 4 8 C3.01 7.67 2.02 7.34 1 7 C0.67 4.69 0.34 2.38 0 0 Z " fill="#116D92" transform="translate(253,218)"/>
<path d="M0 0 C0.66 0 1.32 0 2 0 C2.33 1.98 2.66 3.96 3 6 C1.35 5.67 -0.3 5.34 -2 5 C-1.125 1.125 -1.125 1.125 0 0 Z " fill="#B4D1DC" transform="translate(159,200)"/>
<path d="M0 0 C2.475 0.495 2.475 0.495 5 1 C4.67 2.32 4.34 3.64 4 5 C2.68 5 1.36 5 0 5 C0 3.35 0 1.7 0 0 Z " fill="#B3D0DC" transform="translate(178,295)"/>
<path d="M0 0 C0.66 0.33 1.32 0.66 2 1 C2.625 3.5625 2.625 3.5625 3 6 C2.01 6.495 2.01 6.495 1 7 C-1.125 6.0625 -1.125 6.0625 -3 5 C-2.34 5 -1.68 5 -1 5 C-0.67 3.35 -0.34 1.7 0 0 Z " fill="#BAD5DF" transform="translate(213,279)"/>
<path d="M0 0 C2.64 0.66 5.28 1.32 8 2 C8 3.65 8 5.3 8 7 C7.34 6.67 6.68 6.34 6 6 C6.33 5.01 6.66 4.02 7 3 C6.01 3 5.02 3 4 3 C4.33 4.32 4.66 5.64 5 7 C4.34 7 3.68 7 3 7 C0 2.61538462 0 2.61538462 0 0 Z " fill="#5697B2" transform="translate(168,273)"/>
<path d="M0 0 C1.32 0.33 2.64 0.66 4 1 C4 2.32 4 3.64 4 5 C2.02 5 0.04 5 -2 5 C-2 4.01 -2 3.02 -2 2 C-1.34 2 -0.68 2 0 2 C0 1.34 0 0.68 0 0 Z " fill="#B1CFDB" transform="translate(146,253)"/>
<path d="M0 0 C0.66 0.33 1.32 0.66 2 1 C0.9024777 3.99324263 0.32317108 4.84610901 -2.625 6.25 C-3.40875 6.4975 -4.1925 6.745 -5 7 C-5 5.68 -5 4.36 -5 3 C-2.625 1.1875 -2.625 1.1875 0 0 Z " fill="#E4EEF2" transform="translate(230,299)"/>
<path d="M0 0 C2.475 0.495 2.475 0.495 5 1 C4.67 2.32 4.34 3.64 4 5 C2.68 4.67 1.36 4.34 0 4 C0 2.68 0 1.36 0 0 Z " fill="#B8D3DE" transform="translate(243,281)"/>
<path d="M0 0 C-1.450954 3.82524236 -3.38181932 5.19090966 -7 7 C-7.66 7 -8.32 7 -9 7 C-9 6.34 -9 5.68 -9 5 C-7.5390625 3.7109375 -7.5390625 3.7109375 -5.625 2.375 C-4.99851563 1.92898438 -4.37203125 1.48296875 -3.7265625 1.0234375 C-2 0 -2 0 0 0 Z " fill="#187295" transform="translate(220,273)"/>
<path d="M0 0 C2.31 0 4.62 0 7 0 C6.67 1.32 6.34 2.64 6 4 C3.83125748 3.49396008 2.00032373 3.00016187 0 2 C0 1.34 0 0.68 0 0 Z " fill="#116E92" transform="translate(204,187)"/>
<path d="M0 0 C2.2477975 2.05233685 3.0022242 3.00667261 4 6 C1.69 6 -0.62 6 -3 6 C-2.01 4.02 -1.02 2.04 0 0 Z " fill="#797979" transform="translate(325,264)"/>
<path d="M0 0 C1.32 0.33 2.64 0.66 4 1 C4 2.32 4 3.64 4 5 C3.01 5 2.02 5 1 5 C0.67 3.35 0.34 1.7 0 0 Z " fill="#BCD6E0" transform="translate(226,258)"/>
<path d="M0 0 C2 4 2 4 1.125 7.75 C0.75375 8.8225 0.3825 9.895 0 11 C-0.99 11 -1.98 11 -3 11 C-2.01 7.37 -1.02 3.74 0 0 Z " fill="#2E7F9F" transform="translate(126,220)"/>
<path d="M0 0 C0.33 0 0.66 0 1 0 C0.67 3.63 0.34 7.26 0 11 C-2 9 -2 9 -2.01171875 7.08984375 C-1.11111111 1.11111111 -1.11111111 1.11111111 0 0 Z " fill="#197296" transform="translate(129,231)"/>
<path d="M0 0 C0.66 0 1.32 0 2 0 C1.67 2.97 1.34 5.94 1 9 C0.01 8.67 -0.98 8.34 -2 8 C-1.34 5.36 -0.68 2.72 0 0 Z " fill="#3684A3" transform="translate(130,224)"/>
<path d="M0 0 C5.75 0.875 5.75 0.875 8 2 C8 2.66 8 3.32 8 4 C2.25 3.125 2.25 3.125 0 2 C0 1.34 0 0.68 0 0 Z " fill="#1D7598" transform="translate(174,284)"/>
<path d="M0 0 C1.98 0.495 1.98 0.495 4 1 C3.67 2.32 3.34 3.64 3 5 C1.68 4.34 0.36 3.68 -1 3 C-0.67 2.01 -0.34 1.02 0 0 Z " fill="#0D6B90" transform="translate(133,262)"/>
<path d="M0 0 C-1.39332574 3.36720387 -2.9789286 4.9859524 -6 7 C-6 4 -6 4 -4.125 1.8125 C-2 0 -2 0 0 0 Z " fill="#136F93" transform="translate(150,198)"/>
<path d="M0 0 C1.32 0 2.64 0 4 0 C3.67 1.32 3.34 2.64 3 4 C1.68 3.67 0.36 3.34 -1 3 C-0.67 2.01 -0.34 1.02 0 0 Z " fill="#106D92" transform="translate(216,207)"/>
</svg>
